<svg width="185" height="56" viewBox="0 0 185 56" fill="none" xmlns="http://www.w3.org/2000/svg">
<path d="M20.5312 40V23.1016C20.5312 22.3672 20.5 21.7656 20.4375 21.2969C20.3906 20.8281 20.3047 20.4609 20.1797 20.1953C20.0703 19.9141 19.9219 19.7188 19.7344 19.6094C19.5625 19.5 19.3438 19.4453 19.0781 19.4453C18.7656 19.4453 18.4766 19.5391 18.2109 19.7266C17.9453 19.9141 17.6562 20.2188 17.3438 20.6406C17.0469 21.0625 16.7109 21.625 16.3359 22.3281C15.9766 23.0156 15.5469 23.8672 15.0469 24.8828V40H11.3203V23.5469C11.3203 22.6875 11.2891 21.9922 11.2266 21.4609C11.1797 20.9297 11.0938 20.5156 10.9688 20.2188C10.8594 19.9219 10.7109 19.7188 10.5234 19.6094C10.3359 19.5 10.1094 19.4453 9.84375 19.4453C9.5625 19.4453 9.29688 19.5234 9.04688 19.6797C8.79688 19.8359 8.51562 20.1172 8.20312 20.5234C7.90625 20.9297 7.57031 21.4844 7.19531 22.1875C6.82031 22.8906 6.375 23.7891 5.85938 24.8828V40H2.10938V16.4688H5.22656L5.41406 20.9453C5.82031 20.0547 6.21094 19.2969 6.58594 18.6719C6.97656 18.0469 7.375 17.5469 7.78125 17.1719C8.1875 16.7812 8.61719 16.5 9.07031 16.3281C9.53906 16.1406 10.0547 16.0469 10.6172 16.0469C11.8828 16.0469 12.8438 16.4609 13.5 17.2891C14.1562 18.1172 14.4844 19.3984 14.4844 21.1328C14.8594 20.3203 15.2266 19.6016 15.5859 18.9766C15.9453 18.3359 16.3281 17.8047 16.7344 17.3828C17.1562 16.9453 17.6172 16.6172 18.1172 16.3984C18.6172 16.1641 19.1953 16.0469 19.8516 16.0469C22.8047 16.0469 24.2812 18.3203 24.2812 22.8672V40H20.5312ZM48.4219 39.1328C47.3594 39.5391 46.2656 39.8359 45.1406 40.0234C44.0312 40.2266 42.8828 40.3281 41.6953 40.3281C37.9766 40.3281 35.1094 39.3203 33.0938 37.3047C31.0938 35.2891 30.0938 32.3438 30.0938 28.4688C30.0938 26.6094 30.3828 24.9219 30.9609 23.4062C31.5391 21.8906 32.3516 20.5938 33.3984 19.5156C34.4453 18.4375 35.6953 17.6094 37.1484 17.0312C38.6016 16.4375 40.2031 16.1406 41.9531 16.1406C43.1719 16.1406 44.3125 16.2266 45.375 16.3984C46.4375 16.5703 47.4531 16.8516 48.4219 17.2422V21.1328C47.4062 20.6016 46.3672 20.2188 45.3047 19.9844C44.2578 19.7344 43.1719 19.6094 42.0469 19.6094C41 19.6094 40.0078 19.8125 39.0703 20.2188C38.1484 20.6094 37.3359 21.1797 36.6328 21.9297C35.9297 22.6797 35.375 23.5938 34.9688 24.6719C34.5625 25.75 34.3594 26.9688 34.3594 28.3281C34.3594 31.1719 35.0469 33.3047 36.4219 34.7266C37.8125 36.1328 39.7344 36.8359 42.1875 36.8359C43.2969 36.8359 44.3672 36.7109 45.3984 36.4609C46.4453 36.2109 47.4531 35.8359 48.4219 35.3359V39.1328ZM76.6406 27.8125C76.6406 29.9062 76.3438 31.7344 75.75 33.2969C75.1719 34.8594 74.3672 36.1562 73.3359 37.1875C72.3047 38.2188 71.0859 38.9922 69.6797 39.5078C68.2734 40.0234 66.75 40.2812 65.1094 40.2812C64.3594 40.2812 63.6094 40.2422 62.8594 40.1641C62.125 40.0859 61.375 39.9531 60.6094 39.7656V49.6094H56.5312V16.4688H60.1641L60.4219 20.4062C61.5938 18.7969 62.8438 17.6719 64.1719 17.0312C65.5 16.375 66.9375 16.0469 68.4844 16.0469C69.8281 16.0469 71.0078 16.3281 72.0234 16.8906C73.0391 17.4531 73.8906 18.25 74.5781 19.2812C75.2656 20.2969 75.7812 21.5312 76.125 22.9844C76.4688 24.4219 76.6406 26.0312 76.6406 27.8125ZM72.4688 28C72.4688 26.7656 72.375 25.6328 72.1875 24.6016C72.0156 23.5703 71.7344 22.6875 71.3438 21.9531C70.9531 21.2188 70.4531 20.6484 69.8438 20.2422C69.2344 19.8203 68.5078 19.6094 67.6641 19.6094C67.1484 19.6094 66.625 19.6953 66.0938 19.8672C65.5625 20.0234 65.0078 20.2969 64.4297 20.6875C63.8672 21.0625 63.2656 21.5703 62.625 22.2109C62 22.8359 61.3281 23.6172 60.6094 24.5547V35.9688C61.3594 36.2812 62.1484 36.5312 62.9766 36.7188C63.8047 36.8906 64.6172 36.9766 65.4141 36.9766C67.6172 36.9766 69.3438 36.2344 70.5938 34.75C71.8438 33.25 72.4688 31 72.4688 28ZM99.375 29.1484H85.3594V25.3047H99.375V29.1484ZM130.195 10.6797C128.055 10.2266 126.211 10 124.664 10C120.992 10 119.156 11.9219 119.156 15.7656V19.8906H129.469V23.2891H119.156V40H115.008V23.2891H107.438V19.8906H115.008V16C115.008 9.73438 118.273 6.60156 124.805 6.60156C126.43 6.60156 128.227 6.78906 130.195 7.16406V10.6797ZM152.484 40V23.1016C152.484 22.3672 152.453 21.7656 152.391 21.2969C152.344 20.8281 152.258 20.4609 152.133 20.1953C152.023 19.9141 151.875 19.7188 151.688 19.6094C151.516 19.5 151.297 19.4453 151.031 19.4453C150.719 19.4453 150.43 19.5391 150.164 19.7266C149.898 19.9141 149.609 20.2188 149.297 20.6406C149 21.0625 148.664 21.625 148.289 22.3281C147.93 23.0156 147.5 23.8672 147 24.8828V40H143.273V23.5469C143.273 22.6875 143.242 21.9922 143.18 21.4609C143.133 20.9297 143.047 20.5156 142.922 20.2188C142.812 19.9219 142.664 19.7188 142.477 19.6094C142.289 19.5 142.062 19.4453 141.797 19.4453C141.516 19.4453 141.25 19.5234 141 19.6797C140.75 19.8359 140.469 20.1172 140.156 20.5234C139.859 20.9297 139.523 21.4844 139.148 22.1875C138.773 22.8906 138.328 23.7891 137.812 24.8828V40H134.062V16.4688H137.18L137.367 20.9453C137.773 20.0547 138.164 19.2969 138.539 18.6719C138.93 18.0469 139.328 17.5469 139.734 17.1719C140.141 16.7812 140.57 16.5 141.023 16.3281C141.492 16.1406 142.008 16.0469 142.57 16.0469C143.836 16.0469 144.797 16.4609 145.453 17.2891C146.109 18.1172 146.438 19.3984 146.438 21.1328C146.812 20.3203 147.18 19.6016 147.539 18.9766C147.898 18.3359 148.281 17.8047 148.688 17.3828C149.109 16.9453 149.57 16.6172 150.07 16.3984C150.57 16.1641 151.148 16.0469 151.805 16.0469C154.758 16.0469 156.234 18.3203 156.234 22.8672V40H152.484ZM170.109 19.8438H163.148V16.4688H174.234V36.6016H181.242V40H162.375V36.6016H170.109V19.8438ZM171.539 6.60156C171.992 6.60156 172.414 6.6875 172.805 6.85938C173.195 7.01563 173.531 7.24219 173.812 7.53906C174.109 7.83594 174.336 8.17969 174.492 8.57031C174.664 8.94531 174.75 9.35938 174.75 9.8125C174.75 10.25 174.664 10.6641 174.492 11.0547C174.336 11.4453 174.109 11.7891 173.812 12.0859C173.531 12.3828 173.195 12.6172 172.805 12.7891C172.414 12.9453 171.992 13.0234 171.539 13.0234C171.086 13.0234 170.664 12.9453 170.273 12.7891C169.883 12.6172 169.539 12.3828 169.242 12.0859C168.961 11.7891 168.734 11.4453 168.562 11.0547C168.406 10.6641 168.328 10.25 168.328 9.8125C168.328 9.35938 168.406 8.94531 168.562 8.57031C168.734 8.17969 168.961 7.83594 169.242 7.53906C169.539 7.24219 169.883 7.01563 170.273 6.85938C170.664 6.6875 171.086 6.60156 171.539 6.60156Z" fill="#333F48"/>
<line x1="1.74846e-07" y1="49" x2="52" y2="49" stroke="#C8102E" stroke-width="4"/>
<line x1="65" y1="49" x2="182" y2="49" stroke="#C8102E" stroke-width="4"/>
</svg>
